<svg xmlns="http://www.w3.org/2000/svg" xmlns:xlink="http://www.w3.org/1999/xlink" width="159" height="18" version="1.1" viewBox="0 0 159 18"><title>Group</title><desc>Created with Sketch.</desc><defs><filter id="filter-1" width="200%" height="200%" x="-50%" y="-50%" filterUnits="objectBoundingBox"><feOffset dx=".5" dy=".5" in="SourceAlpha" result="shadowOffsetOuter1"/><feGaussianBlur in="shadowOffsetOuter1" result="shadowBlurOuter1" stdDeviation="0"/><feColorMatrix in="shadowBlurOuter1" result="shadowMatrixOuter1" type="matrix" values="0 0 0 0 1 0 0 0 0 1 0 0 0 0 1 0 0 0 0.0663185009 0"/><feOffset dx="0" dy="0" in="SourceAlpha" result="shadowOffsetInner1"/><feGaussianBlur in="shadowOffsetInner1" result="shadowBlurInner1" stdDeviation="1"/><feComposite in="shadowBlurInner1" in2="SourceAlpha" k2="-1" k3="1" operator="arithmetic" result="shadowInnerInner1"/><feColorMatrix in="shadowInnerInner1" result="shadowMatrixInner1" type="matrix" values="0 0 0 0 0 0 0 0 0 0 0 0 0 0 0 0 0 0 0.14 0"/><feMerge><feMergeNode in="shadowMatrixOuter1"/><feMergeNode in="SourceGraphic"/><feMergeNode in="shadowMatrixInner1"/></feMerge></filter></defs><g id="Login" fill="none" fill-rule="evenodd" stroke="none" stroke-width="1"><g id="new-3" transform="translate(-732.000000, -204.000000)"><g id="Group" transform="translate(733.000000, 204.724993)"><path id="Oval-14" fill="#2C3E50" d="M71.376385,10.4695498 C72.6302562,12.9326346 75.2233404,14.6240465 78.2188133,14.6240465 C81.2142863,14.6240465 83.8073705,12.9326346 85.0612417,10.4695498 L85.0612448,10.4695491 L141.968419,10.4695498 C143.222291,12.9326346 145.815375,14.6240465 148.810848,14.6240465 C153.032932,14.6240465 156.455607,11.2637907 156.455607,7.11870514 C156.455607,2.97361957 153.032932,-0.386636224 148.810848,-0.386636224 C145.347749,-0.386636224 142.42248,1.87409167 141.482667,4.9743219 L85.5469939,4.9743219 C84.6071808,1.87409167 81.6819119,-0.386636224 78.2188133,-0.386636224 C74.7557148,-0.386636224 71.8304459,1.87409167 70.8906328,4.9743219 L14.8620142,4.9743219 C13.9222011,1.87409167 10.9969322,-0.386636224 7.53383365,-0.386636224 C3.31174957,-0.386636224 -0.110925827,2.97361957 -0.110925827,7.11870514 C-0.110925827,11.2637907 3.31174957,14.6240465 7.53383365,14.6240465 C10.5293066,14.6240465 13.1223908,12.9326346 14.376262,10.4695498 L71.3763819,10.4695491 Z" filter="url(#filter-1)"/><rect id="Rectangle-81" width="64" height="2" x="9.827" y="6.5" fill="#7A8C9E"/><circle id="Oval-12" cx="7.634" cy="7.311" r="4.5" fill="#7A8C9E"/><circle id="Oval-15" cx="78.072" cy="7.311" r="4.5" fill="#7A8C9E"/></g></g></g></svg>